<svg width="69" height="99" viewBox="0 0 69 99" fill="none" xmlns="http://www.w3.org/2000/svg">
<path d="M38 48C52.3594 48 64 37.2548 64 24C64 10.7452 52.3594 0 38 0C23.6406 0 12 10.7452 12 24C12 37.2548 23.6406 48 38 48Z" fill="#FFDD67"/>
<path d="M26.7333 15.04C26.7333 13.12 31.3267 14 32.8 15.36C33.6667 14 33.2333 12.8 33.2333 12.8C33.2333 12.8 31.9333 11.92 29.94 11.6V9.84C28.38 9.36 26.6467 9.84 26.6467 9.84V11.52C26.6467 11.52 23.5267 12.08 23.5267 15.04C23.5267 18.96 29.94 18.16 29.94 20.64C29.94 22.48 25.6067 21.68 23.5267 20.24C22.8333 21.68 23.5267 22.96 23.5267 22.96C25.0867 23.6 26.6467 23.76 26.6467 23.76V25.36C26.6467 25.36 28.38 25.84 29.94 25.36V23.68C29.94 23.68 33.58 23.52 33.58 20.64C33.6667 16.88 26.7333 17.2 26.7333 15.04ZM45.8 15.04C45.8 13.12 50.3933 14 51.8667 15.36C52.7333 14 52.3 12.8 52.3 12.8C52.3 12.8 51 11.92 49.0067 11.6V9.84C47.4467 9.36 45.7133 9.84 45.7133 9.84V11.52C45.7133 11.52 42.5933 12.08 42.5933 15.04C42.5933 18.96 49.0067 18.16 49.0067 20.64C49.0067 22.48 44.6733 21.68 42.5933 20.24C41.9 21.68 42.5933 22.96 42.5933 22.96C44.1533 23.6 45.7133 23.76 45.7133 23.76V25.36C45.7133 25.36 47.4467 25.84 49.0067 25.36V23.68C49.0067 23.68 52.6467 23.52 52.6467 20.64C52.7333 16.88 45.8 17.2 45.8 15.04ZM51.78 28.8H24.22C23.6133 28.8 23.2667 29.2 23.2667 29.6C23.2667 35.44 28.4667 41.6 38 41.6C47.5333 41.6 52.7333 35.44 52.7333 29.6C52.7333 29.2 52.3867 28.8 51.78 28.8Z" fill="#664E27"/>
<path d="M45.9733 33.6H38H30.0267C29.42 33.6 29.3333 33.84 29.3333 34.24V37.44C29.3333 44.48 33.2333 48 38 48C42.7667 48 46.6667 44.48 46.6667 37.44V34.24C46.6667 33.84 46.58 33.6 45.9733 33.6Z" fill="#74E063"/>
<path d="M36.8733 38C36.8733 36.72 39.7333 37.36 40.6867 38.24C41.2933 37.36 40.9467 36.56 40.9467 36.56C40.9467 36.56 40.08 36 38.8667 35.76V34.56C37.9133 34.24 36.7867 34.56 36.7867 34.56V35.68C36.7867 35.68 34.7933 36 34.7933 38C34.7933 40.56 38.8667 40 38.8667 41.68C38.8667 42.88 36.18 42.4 34.7933 41.44C34.36 42.4 34.7933 43.2 34.7933 43.2C35.7467 43.6 36.7867 43.76 36.7867 43.76V44.8C36.7867 44.8 37.8267 45.12 38.8667 44.8V43.68C38.8667 43.68 41.12 43.52 41.12 41.68C41.2933 39.2 36.8733 39.44 36.8733 38Z" fill="#449636"/>
<path d="M44.5867 33.6V36.4C44.5867 43.04 41.9867 46 38 46C34.0133 46 31.4133 43.12 31.4133 36.4V33.6H30.72V36.4C30.72 43.52 33.58 46.72 38 46.72C42.42 46.72 45.28 43.52 45.28 36.4V33.6H44.5867Z" fill="#449636"/>
<path d="M1.94191 72.0931C18.5356 61.6601 36.0346 47.2938 46.5563 31.1389C49.9748 34.3184 53.3935 37.5241 56.813 40.7306C60.3326 44.031 63.8532 47.3322 67.3739 50.6051C67.5424 52.0858 67.7363 53.5385 67.9295 54.9728C67.9424 55.069 67.9554 55.1651 67.9683 55.2611C68.148 56.5938 68.3255 57.9107 68.4811 59.2266C57.4433 74.8374 39.3339 88.6231 22.1527 98.3841C18.5632 95.0354 14.9735 91.6591 11.3829 88.282L11.3826 88.2816L11.3817 88.2808C7.77529 84.8888 4.16803 81.4959 0.560615 78.1308C1.08605 76.1492 1.51635 74.1659 1.94191 72.0931Z" fill="#699635" stroke="black"/>
<path d="M23.5314 89.6222C16.5412 83.0003 9.54924 76.3781 2.55702 69.8633C20.2458 59.4305 35.1567 45.362 46.2032 28.7722C49.6825 32.0659 53.1616 35.3334 56.6399 38.6L56.6402 38.6003L56.6413 38.6013C60.1619 41.9078 63.6817 45.2134 67.2013 48.546C56.1785 65.1487 41.2552 79.2194 23.5314 89.6222Z" fill="#83BF4F" stroke="black"/>
<path d="M8.49206 68.4441C22.7592 59.3386 35.1482 47.7488 44.9061 34.3368L45.1814 34.6201L45.1948 34.6339L45.2093 34.6467C46.2326 35.5493 47.6959 35.389 48.5575 34.3689C48.6798 34.2395 48.7743 34.0926 48.8468 33.9709C51.1178 36.0884 53.3891 38.2307 55.6615 40.3742L55.6619 40.3746L55.6633 40.3759C57.9703 42.552 60.2786 44.7292 62.5871 46.8808C62.5705 46.9088 62.555 46.9354 62.5406 46.9601L62.5306 46.9773C62.4381 47.1358 62.3813 47.2281 62.3164 47.2949L62.2918 47.3202L62.2709 47.3488C61.4334 48.4979 61.5766 50.0705 62.5464 51.0685L62.9426 51.4761C53.2051 64.7832 40.8116 76.3742 26.5254 85.4618L26.1186 85.0432L26.1052 85.0294L26.0907 85.0167C25.1104 84.152 23.4947 84.0333 22.2919 84.7209L22.2741 84.7311L22.2572 84.7427C22.0956 84.8535 21.9611 84.9366 21.8173 85.0254L21.8147 85.027C21.7691 85.0552 21.7226 85.0839 21.6744 85.114C19.3562 82.9536 17.0378 80.7668 14.7181 78.5788L14.7172 78.5779C12.4599 76.4488 10.2015 74.3185 7.94275 72.2122C8.05904 72.14 8.1837 72.0611 8.32693 71.963C8.88059 71.6048 9.26486 71.0784 9.36294 70.4729C9.46298 69.8552 9.25311 69.2272 8.75357 68.7132L8.49206 68.4441ZM9.89754 71.8877L9.49926 72.252L9.89289 72.6213L9.8946 72.6229C13.8041 76.2907 17.7133 79.9583 21.7374 83.7442L21.9511 83.9453L22.2309 83.8567C23.6068 83.4211 25.1947 83.5331 26.4513 84.1796L26.7106 84.313L26.9544 84.153C40.342 75.365 52.0011 64.4377 61.3527 51.7263L61.5529 51.4543L61.3752 51.167C60.6574 50.0062 60.5509 48.5175 61.0684 47.2393L61.1971 46.9216L60.9471 46.687C57.0371 43.0187 53.1273 39.3506 49.1026 35.5642L48.7648 35.2463L48.4225 35.5594C47.562 36.3465 46.3051 36.4621 45.2097 35.8473L44.8225 35.63L44.5609 35.9888C35.2831 48.7178 23.7128 59.5634 10.4206 68.2887L10.0242 68.5489L10.2631 68.9585C10.8503 69.9656 10.7367 71.1202 9.89754 71.8877Z" fill="#699635" stroke="black"/>
<path d="M19.8997 70.2957C20.0262 70.2046 20.1493 70.116 20.2702 70.0312L20.4491 70.3994L20.8752 70.24C21.7834 69.9002 22.7073 69.9152 23.4218 70.2716C23.299 70.3649 23.1731 70.4591 23.0454 70.5547L23.0403 70.5585C22.8197 70.7236 22.5936 70.8928 22.3754 71.0639C22.2147 71.0081 22.0493 70.9875 21.9075 70.9875C21.6501 70.9875 21.3148 71.0554 21.0707 71.2784C20.8507 71.4386 20.6427 71.6766 20.5829 71.9838C20.513 72.3437 20.6701 72.6662 20.954 72.8783C21.2005 73.1047 21.5399 73.1708 21.8069 73.1708C22.1027 73.1708 22.4364 73.0918 22.7078 72.9056C23.3192 72.4862 24.0583 72.2518 24.7487 72.2389C25.44 72.2259 26.0395 72.4333 26.4364 72.8418C27.0759 73.4998 27.1543 74.3926 26.5291 75.1278L26.2346 75.4741L26.5514 75.8001C26.6249 75.8758 26.6982 75.9412 26.7673 75.9989C26.6606 76.0742 26.5554 76.1499 26.4526 76.224L26.4453 76.2293C26.2722 76.3539 26.1054 76.474 25.9418 76.5859C25.783 76.4363 25.6032 76.2879 25.4137 76.1904L25.2391 76.1005L25.0499 76.1536C24.1406 76.4088 23.2505 76.378 22.6054 76.061C22.7331 75.9767 22.8594 75.894 22.9864 75.8108L22.9881 75.8097C23.223 75.6559 23.4605 75.5004 23.7108 75.332C23.8838 75.3964 24.0653 75.4192 24.2219 75.4192C24.5177 75.4192 24.8514 75.3402 25.1228 75.154C25.3948 74.9674 25.5797 74.696 25.6108 74.3759C25.6414 74.061 25.5156 73.7727 25.3136 73.5649C25.0811 73.3257 24.765 73.2358 24.4806 73.2358C24.1924 73.2358 23.8926 73.3258 23.6372 73.501L23.6304 73.5056L23.6239 73.5105C22.9303 74.0202 22.0302 74.2284 21.234 74.1287C20.6285 74.0235 20.1462 73.8221 19.7691 73.5393C19.4624 73.2133 19.3267 72.8653 19.3167 72.523C19.3062 72.1663 19.4311 71.7698 19.7241 71.3678L20.068 70.8959L19.5488 70.6287C19.5355 70.6219 19.5187 70.6108 19.4928 70.5858C19.6287 70.4909 19.7623 70.3947 19.8923 70.3011L19.8997 70.2957ZM47.0214 44.7968L47.3152 45.0991L47.6628 44.8606C48.3979 44.3564 49.1972 44.3059 49.7873 44.6495L48.9631 45.7095C48.5407 45.605 48.0502 45.7485 47.7654 46.1881C47.5971 46.4478 47.5125 46.7495 47.5125 47.0369C47.5125 47.3188 47.596 47.6363 47.8264 47.8735C48.2653 48.325 49.0917 48.3146 49.509 47.7021C50.4037 46.592 51.7808 46.4817 52.5518 47.1742C53.1975 47.8478 53.404 48.9309 53.009 49.9472L52.8926 50.2465L53.1164 50.4768C53.2447 50.6088 53.3721 50.7098 53.4785 50.7921C53.3599 50.9474 53.2468 51.0971 53.1344 51.2459L53.1336 51.2468C53.0384 51.3729 52.9436 51.4983 52.846 51.6265C52.719 51.5164 52.5816 51.4139 52.4387 51.3404L52.1974 51.2162L51.9619 51.3509C51.2212 51.7743 50.493 51.8166 49.9241 51.4754C50.0584 51.3164 50.1993 51.1553 50.3439 50.99L50.3488 50.9843C50.5143 50.7952 50.6845 50.6006 50.8488 50.4034C51.2731 50.5118 51.768 50.3693 52.0546 49.9269C52.2229 49.6672 52.3075 49.3655 52.3075 49.0781C52.3075 48.7962 52.224 48.4787 51.9936 48.2415C51.5553 47.7906 50.7303 47.8004 50.3126 48.4106C49.8174 49.0114 49.0417 49.3917 48.415 49.3917C47.9838 49.3917 47.5253 49.2156 47.1389 48.9258C46.4999 48.2493 46.3065 47.2881 46.696 46.2862L46.8592 45.8664L46.4587 45.6604C46.4355 45.6484 46.4015 45.6234 46.3267 45.5335C46.3251 45.5317 46.3235 45.5297 46.3219 45.5277C46.5409 45.2783 46.7545 45.0083 46.9517 44.729C46.976 44.7515 46.9989 44.7737 47.0214 44.7968ZM43.4682 55.4586L43.4743 55.4643L43.4804 55.4699C46.9452 58.5895 47.0517 64.0469 43.589 67.276C40.1065 70.5235 34.1966 70.4145 30.8186 67.2784C27.4806 64.062 27.6739 59.0708 31.161 55.819C34.6782 52.5392 40.1242 52.2396 43.4682 55.4586Z" fill="#699635" stroke="black"/>
<path d="M50.9229 68.366C48.8501 70.4873 46.7739 72.5061 44.5226 74.4264L23.5102 54.6353C25.7724 52.615 27.9424 50.5944 30.0201 48.5734L50.9229 68.366Z" fill="#FFDD7D" stroke="black"/>
<path d="M51.25 77.9462C49.2649 79.6781 47.197 81.4075 45.12 83.0583V75.2038C47.1872 73.3759 49.2547 71.4594 51.25 69.4547V77.9462Z" fill="#DBB471" stroke="black"/>
<path d="M18.9292 50.085C19.6149 49.5203 20.2767 48.9753 20.9783 48.5538C20.5678 48.8613 20.1765 49.196 19.7952 49.5307C19.6885 49.6243 19.5829 49.7176 19.4778 49.8106C19.0929 50.1508 18.7149 50.485 18.3176 50.803C18.0298 51.0333 17.7483 51.267 17.4688 51.499C16.8742 51.9928 16.2887 52.4789 15.6715 52.9082C16.5544 52.1814 17.3708 51.4448 18.2653 50.6267C18.4904 50.4464 18.711 50.2647 18.9292 50.085Z" fill="#8D9998" stroke="black"/>
<path d="M49.6783 88.1005L49.6776 88.1006L49.6732 88.1017L49.6537 88.1062C49.636 88.1103 49.609 88.1164 49.5735 88.1241C49.5025 88.1395 49.3977 88.1615 49.2651 88.1869C48.9996 88.2376 48.6243 88.3018 48.1877 88.3547C47.3056 88.4616 46.2105 88.5178 45.2704 88.3462C44.3155 88.172 43.6655 87.7941 43.4209 87.1589C43.1656 86.4958 43.2617 85.3402 44.3652 83.3895L44.8875 82.4662L43.8433 82.6509L43.8432 82.6509L43.843 82.651L43.8429 82.651L43.8404 82.6514L43.8277 82.6535C43.8158 82.6555 43.7975 82.6584 43.7731 82.6621C43.7244 82.6695 43.6517 82.6799 43.5596 82.6912C43.375 82.7137 43.1138 82.7397 42.8104 82.7529C42.1944 82.7797 41.4438 82.7517 40.8112 82.5611C40.1797 82.3707 39.7576 82.0507 39.6053 81.5501C39.4437 81.0186 39.5311 80.1204 40.3426 78.6518L40.3649 78.6115L40.3795 78.5677L39.905 78.41C40.3795 78.5677 40.3795 78.5676 40.3796 78.5674L40.3797 78.567L40.3801 78.5658L40.3813 78.5622L40.3852 78.55L40.399 78.5065C40.4106 78.4691 40.427 78.4149 40.4471 78.3449C40.4873 78.205 40.5423 78.0018 40.6036 77.743C40.726 77.2257 40.8736 76.485 40.9768 75.5824C41.1773 73.8284 41.212 71.4492 40.5586 68.9065C40.5805 68.8628 40.6063 68.8098 40.634 68.7529C40.6552 68.7091 40.6777 68.663 40.7003 68.617C40.8275 68.359 41.0085 68.0078 41.2601 67.616C41.74 66.8686 42.4687 65.9856 43.5462 65.3357C43.5728 65.3418 43.6018 65.3482 43.6333 65.3549C43.8253 65.3959 44.109 65.4489 44.4878 65.5005C45.2456 65.6037 46.3839 65.7012 47.9311 65.6862C51.0256 65.6562 55.7543 65.1758 62.3457 63.3909C63.8706 62.978 65.0489 63.1932 65.9434 63.8149C66.8539 64.4477 67.5439 65.553 67.969 67.0566C68.8209 70.0695 68.5493 74.4828 67.1142 79.0591C64.2407 88.222 56.8385 97.6717 45.195 97.6717C44.632 97.6717 44.3266 97.4923 44.1839 97.2696C44.0337 97.0352 43.9594 96.594 44.2158 95.8495C44.7301 94.3571 46.4512 92.034 50.1157 88.9703L49.6786 88.1011C49.6784 88.1004 49.6784 88.1004 49.6784 88.1004L49.6784 88.1004L49.6783 88.1005Z" fill="#E8E8E8" stroke="black"/>
<path d="M44.1095 97.1342C43.9878 96.7005 44.0806 95.956 44.678 94.8849C52.8454 94.864 58.9721 90.4355 63.0111 84.734C65.8685 80.7006 67.7007 76.0055 68.4872 71.7203C68.4468 72.8874 68.3089 74.1301 68.0716 75.4184C67.4582 78.7489 66.1876 82.3445 64.2691 85.6589C60.4306 92.2905 54.0446 97.7316 45.1936 97.79C44.8626 97.7898 44.6181 97.7166 44.45 97.6086C44.2885 97.5049 44.171 97.353 44.1095 97.1342Z" fill="#D1D1D1" stroke="black"/>
<path d="M50.4427 84.5407C53.0994 83.265 55.9671 81.2493 58.1051 78.0866C57.0401 80.428 55.5233 82.5969 53.8281 84.4146C52.3183 86.0335 50.681 87.3581 49.1225 88.2676C47.5539 89.183 46.1103 89.6516 44.9767 89.6251L44.9767 89.625H44.965C44.3554 89.625 43.8705 89.3907 43.5763 88.9258C43.299 88.4876 43.1426 87.7685 43.3182 86.6771C43.3908 86.6681 43.4731 86.6573 43.5644 86.6444C43.96 86.5887 44.5255 86.4949 45.2137 86.342C46.5887 86.0364 48.4596 85.493 50.4427 84.5407ZM43.3273 83.1651L43.3272 83.165L43.3216 83.1715C43.2791 83.2207 43.1752 83.2993 42.9825 83.3764C42.7971 83.4505 42.5612 83.5104 42.2937 83.544C41.7543 83.6117 41.1418 83.5659 40.6288 83.3711C40.1225 83.1788 39.7468 82.8577 39.5785 82.3828C39.4428 82 39.4189 81.4534 39.6546 80.6913C39.6928 80.7158 39.7329 80.7401 39.7749 80.764C40.2765 81.049 41.0172 81.248 42.0111 81.0282C43.5958 80.6778 45.7916 79.2714 48.7743 75.5329C48.4596 76.099 48.0981 76.6992 47.7062 77.3124C46.3388 79.4523 44.6297 81.7084 43.3273 83.1651Z" fill="#D1D1D1" stroke="black"/>
<path d="M53.9274 84.682C52.7657 85.7975 51.6036 86.8596 50.4389 87.9066C50.904 87.4413 51.3718 86.9867 51.8407 86.5311C52.5045 85.8861 53.1705 85.2391 53.8336 84.5568C55.2772 83.0713 56.6337 81.4871 57.8195 79.804C56.742 81.5989 55.3439 83.224 53.9274 84.682ZM44.8562 81.9604C45.2631 81.3489 45.7198 80.7664 46.1831 80.1756C46.4085 79.8882 46.6354 79.5988 46.8589 79.3032C47.168 78.8942 47.493 78.505 47.8237 78.1089C47.9139 78.0008 48.0046 77.8921 48.0956 77.7824C48.3919 77.4249 48.6881 77.059 48.9643 76.6777C48.5599 77.3738 48.0468 78.0334 47.5168 78.7149C47.3423 78.9392 47.1659 79.166 46.991 79.3971C46.2268 80.2819 45.5358 81.0923 44.8562 81.9604Z" fill="#8D9998" stroke="black"/>
<path d="M9.80262 47.8722L9.80264 47.8722L9.80266 47.8721C9.80266 47.8721 9.80265 47.8721 9.80203 47.872L8.92259 47.4518C5.94321 51.225 3.68698 52.9927 2.24364 53.5192C1.52614 53.781 1.11215 53.702 0.895234 53.5549C0.680451 53.4091 0.5 53.0881 0.5 52.495C0.5 40.4873 9.6996 32.8748 18.5863 29.9241C23.03 28.4487 27.3098 28.1714 30.2274 29.0448C31.6813 29.48 32.7535 30.1868 33.37 31.1259C33.9789 32.0535 34.1895 33.2783 33.7856 34.8578C32.0517 41.6376 31.5854 46.4998 31.5563 49.68C31.5417 51.2701 31.6364 52.4393 31.7364 53.217C31.7864 53.6059 31.8378 53.8967 31.8774 54.0933C31.8852 54.1319 31.8925 54.1667 31.8993 54.198C31.2654 55.3163 30.403 56.0694 29.6764 56.5634C29.2964 56.8217 28.9559 57.0076 28.7056 57.1382C28.6613 57.1613 28.6167 57.1843 28.5742 57.2061C28.5239 57.232 28.4766 57.2564 28.4364 57.2776C25.9649 56.6078 23.6529 56.6439 21.948 56.8503C21.069 56.9567 20.3475 57.1089 19.8435 57.2352C19.5914 57.2983 19.3934 57.3551 19.2569 57.3967C19.1886 57.4174 19.1357 57.4344 19.0991 57.4464L19.0565 57.4607L19.0446 57.4648L19.041 57.466L19.0398 57.4664L19.0393 57.4666C19.0391 57.4666 19.039 57.4667 19.205 57.9383L19.039 57.4667L18.9938 57.4826L18.9525 57.5068C17.5254 58.3418 16.6652 58.424 16.1652 58.263C15.6906 58.1102 15.375 57.6797 15.1865 57.0175C14.9995 56.3605 14.9725 55.5828 14.9986 54.9469C15.0114 54.6334 15.0368 54.3635 15.0588 54.1727C15.0698 54.0775 15.0799 54.0024 15.0872 53.9519C15.0908 53.9266 15.0937 53.9075 15.0956 53.8952L15.0977 53.8818L15.0982 53.8791L15.0982 53.879L15.0982 53.8788L15.0982 53.8787L15.2765 52.8117L14.3481 53.3677C12.4516 54.5036 11.3433 54.5931 10.7167 54.3377C10.108 54.0895 9.73492 53.4205 9.56336 52.4249C9.39564 51.4515 9.45075 50.3197 9.5548 49.4105C9.60634 48.9601 9.66883 48.5731 9.71831 48.2992C9.74303 48.1624 9.76444 48.0542 9.77951 47.9809C9.78705 47.9442 9.793 47.9163 9.79698 47.8979L9.80142 47.8776L9.80244 47.873L9.80262 47.8722Z" fill="#E8E8E8" stroke="black"/>
<path d="M22.1218 28.94C23.4366 28.6835 24.702 28.5401 25.8842 28.5074C21.664 29.2974 17.0197 31.1972 13.04 34.1823C7.49347 38.3426 3.19856 44.6439 3.18006 53.0322C2.13928 53.6013 1.45424 53.692 1.07238 53.5823C0.887222 53.5291 0.758286 53.4261 0.666562 53.2698C0.568478 53.1028 0.5 52.8504 0.5 52.495C0.5 43.3667 5.77047 36.7935 12.1929 32.8487C15.4045 30.8761 18.8916 29.5703 22.1218 28.94Z" fill="#D1D1D1" stroke="black"/>
<path d="M19.5905 39.1663C16.4623 41.3748 14.4789 44.3568 13.2296 47.1114C12.3053 49.1496 11.778 51.0721 11.4814 52.4847C11.333 53.1917 11.2421 53.7726 11.1881 54.1787C11.175 54.2772 11.1641 54.3655 11.155 54.4428C10.1066 54.6199 9.42096 54.4595 9.00394 54.1801C8.55524 53.8794 8.32 53.375 8.32 52.7317H8.32012L8.31988 52.7206C8.29387 51.5431 8.75322 50.0506 9.64329 48.4357C10.5282 46.83 11.8164 45.1446 13.3894 43.5912C15.1709 41.8321 17.2974 40.2618 19.5905 39.1663ZM16.9884 58.2083C16.2465 58.4534 15.7211 58.4276 15.3575 58.2912C14.9056 58.1216 14.5904 57.7383 14.4 57.2075C14.2084 56.6731 14.1636 56.0359 14.23 55.4752C14.263 55.197 14.3219 54.9511 14.3951 54.7573C14.4714 54.5553 14.5494 54.4463 14.5975 54.4023L14.5975 54.4023L14.6037 54.3964C16.0192 53.0564 18.2113 51.2982 20.2902 49.8916C20.897 49.4811 21.4903 49.1031 22.0489 48.7754C18.3633 51.8751 16.986 54.1496 16.6456 55.7801C16.4343 56.7919 16.6253 57.544 16.8992 58.0545C16.9284 58.1089 16.9583 58.1601 16.9884 58.2083Z" fill="#D1D1D1" stroke="black"/>
<path d="M13.1295 43.489C14.5746 42.0026 16.1874 40.5369 17.9708 39.4208C16.2823 40.6658 14.6959 42.099 13.2114 43.6265C12.5483 44.3088 11.9196 44.994 11.2927 45.6771C10.8663 46.1418 10.4408 46.6055 10.006 47.0666C11.0202 45.8722 12.0491 44.6804 13.1295 43.489Z" fill="#8D9998" stroke="black"/>
<path d="M18.9292 50.085C19.6149 49.5203 20.2767 48.9753 20.9783 48.5538C20.5678 48.8613 20.1765 49.196 19.7952 49.5307C19.6885 49.6243 19.5829 49.7176 19.4778 49.8106C19.0929 50.1508 18.7149 50.485 18.3176 50.803C18.0298 51.0333 17.7483 51.267 17.4688 51.499C16.8742 51.9928 16.2887 52.4789 15.6715 52.9082C16.5544 52.1814 17.3708 51.4448 18.2653 50.6267C18.4904 50.4464 18.711 50.2647 18.9292 50.085Z" fill="#8D9998" stroke="black"/>
</svg>
