<svg width="90" height="82" viewBox="0 0 90 82" fill="none" xmlns="http://www.w3.org/2000/svg">
<path d="M0.5 0.5H89.5V81.5H0.5V0.5Z" fill="white" stroke="black"/>
<path d="M8.75087 81.5H0.5V69.9959L38.9947 19.0958L52.089 33.0145L52.4701 33.4197L52.8325 32.9976L74.9016 7.29063H82.0469V19.6746L53.1364 53.4511L40.5808 40.2708L40.1744 39.8442L39.8196 40.3145L8.75087 81.5Z" fill="#5452C1" stroke="black"/>
<path d="M2.45312 59.45V59.95H2.95312H3.20613L0.5 63.484V0.5H89.5V81.5H13.6836L15.009 79.8094H21.7969H22.2969V79.3094V70.1218L24.25 67.4949V78.925V79.425H24.75H43.5938H44.0938V78.925V61.8844V61.3844H43.5938H28.7305L30.0559 59.6938H43.5938H44.0938V59.1938V49.3268L46.0469 51.4453V59.3219V59.8219H46.5469H65.25H65.75V59.3219V44.513L67.7031 42.1812V42.4094V59.45V59.95H68.2031H86.4062H86.9062H87.0469V59.45H87.4062V42.4094V41.9094H86.9062H68.2031H67.9308L69.5615 39.9625H86.7656H87.2656V39.4625V22.4219V21.9219H86.7656H84.889L85.6008 21.0788L85.7188 20.9391V20.7563V20.2312H86.7656H87.2656V19.7312V2.69062V2.19062H86.7656H68.0625H67.5625V2.69062V9.68124L65.6094 11.9692V2.69062V2.19062H65.1094H46.4062H45.9062V2.69062V19.8594V20.3594H46.4062H58.5119L57.0098 22.05H46.9036L43.8125 18.7643V2.69062V2.19062H43.3125H24.6094H24.1094V2.69062V19.8594V20.3594H24.6094H33.0039L31.6785 22.05H24.6094H24.1094V22.55V32.122L22.1562 34.7489V22.55V22.05H21.6562H2.95312H2.45312V22.55V39.7188V40.2188H2.95312H18.0977L16.7723 41.9094H2.95312H2.45312V42.4094V59.45ZM22.2969 20.3594V19.8594H21.7969C22.2969 19.8594 22.2969 19.8593 22.2969 19.8592V19.8586V19.8562V19.8469L22.2969 19.8101L22.2968 19.6664L22.2966 19.1214C22.2963 18.6518 22.2958 17.981 22.2947 17.1761C22.2925 15.5662 22.2881 13.4197 22.2793 11.273C22.2705 9.12656 22.2573 6.97879 22.2375 5.3671C22.2276 4.56171 22.216 3.88772 22.2025 3.41402C22.1957 3.17807 22.1883 2.98698 22.1801 2.85278C22.176 2.78743 22.1713 2.72605 22.165 2.6769C22.1623 2.65547 22.1571 2.61784 22.1469 2.57816C22.1428 2.5623 22.1305 2.51574 22.1031 2.46304C22.0898 2.43745 22.0594 2.38365 22.0037 2.33028C21.9459 2.27489 21.8279 2.19062 21.6562 2.19062H2.95312H2.45312V2.69062V19.8594V20.3594H2.95312H21.7969H22.2969ZM65.25 79.8094H65.75V79.3094V62.1406V61.6406H65.25H46.5469H46.0469V62.1406V79.3094V79.8094H46.5469H65.25ZM67.7031 79.3094V79.8094H68.2031H86.4062H86.9062H87.0469V79.3094H87.4062V62.1406V61.6406H86.9062H68.2031H67.7031V62.1406V79.3094Z" fill="#D0D5D8" stroke="black"/>
</svg>
