<svg width="128" height="123" viewBox="0 0 128 123" fill="none" xmlns="http://www.w3.org/2000/svg">
<path d="M64 111.833C62.7556 111.833 61.6889 111.494 60.8 110.817C59.9111 110.139 59.2444 109.249 58.8 108.148C57.1111 103.403 54.9778 98.9555 52.4 94.8042C49.9111 90.6528 46.4 85.7812 41.8667 80.1896C37.3333 74.5979 33.6444 69.2604 30.8 64.1771C28.0444 59.0937 26.6667 52.9514 26.6667 45.75C26.6667 35.8375 30.2667 27.45 37.4667 20.5875C44.7556 13.6403 53.6 10.1667 64 10.1667C74.4 10.1667 83.2 13.6403 90.4 20.5875C97.6889 27.45 101.333 35.8375 101.333 45.75C101.333 53.4597 99.7778 59.8986 96.6667 65.0667C93.6444 70.15 90.1333 75.191 86.1333 80.1896C81.3333 86.2896 77.6889 91.3729 75.2 95.4396C72.8 99.4215 70.8 103.658 69.2 108.148C68.7556 109.334 68.0444 110.266 67.0667 110.944C66.1778 111.537 65.1556 111.833 64 111.833ZM64 58.4583C67.7333 58.4583 70.8889 57.2299 73.4667 54.7729C76.0444 52.316 77.3333 49.3083 77.3333 45.75C77.3333 42.1917 76.0444 39.184 73.4667 36.7271C70.8889 34.2701 67.7333 33.0417 64 33.0417C60.2667 33.0417 57.1111 34.2701 54.5333 36.7271C51.9556 39.184 50.6667 42.1917 50.6667 45.75C50.6667 49.3083 51.9556 52.316 54.5333 54.7729C57.1111 57.2299 60.2667 58.4583 64 58.4583Z" fill="url(#paint0_linear_126_54)" stroke="black"/>
<path d="M75.383 97.375H94.4468V107.375H75.383V97.375Z" fill="#BF7E68" stroke="#4C241D" stroke-width="1.05324" stroke-linecap="round" stroke-linejoin="round"/>
<path d="M75.383 94.875H94.4468V97.375H75.383V94.875Z" fill="#BF7E68" stroke="#4C241D" stroke-width="1.05324" stroke-linecap="round" stroke-linejoin="round"/>
<path d="M77.766 103.625C78.398 103.625 79.0041 103.888 79.451 104.357C79.8979 104.826 80.1489 105.462 80.1489 106.125V118H78.0573C77.348 118 76.6678 117.704 76.1663 117.178C75.6647 116.652 75.383 115.938 75.383 115.194V106.125C75.383 105.462 75.634 104.826 76.0809 104.357C76.5278 103.888 77.1339 103.625 77.766 103.625Z" fill="#BF7E68" stroke="#4C241D" stroke-width="1.05324" stroke-linecap="round" stroke-linejoin="round"/>
<path d="M82.5319 103.625C83.1639 103.625 83.77 103.888 84.2169 104.357C84.6638 104.826 84.9149 105.462 84.9149 106.125V118H80.1489V106.125C80.1489 105.462 80.4 104.826 80.8469 104.357C81.2938 103.888 81.8999 103.625 82.5319 103.625Z" fill="#BF7E68" stroke="#4C241D" stroke-width="1.05324" stroke-linecap="round" stroke-linejoin="round"/>
<path d="M87.2979 103.625C87.9299 103.625 88.536 103.888 88.9829 104.357C89.4298 104.826 89.6808 105.462 89.6808 106.125V118H84.9149V106.125C84.9149 105.462 85.166 104.826 85.6128 104.357C86.0597 103.888 86.6659 103.625 87.2979 103.625Z" fill="#BF7E68" stroke="#4C241D" stroke-width="1.05324" stroke-linecap="round" stroke-linejoin="round"/>
<path d="M92.0638 103.625C92.6958 103.625 93.302 103.888 93.7489 104.357C94.1957 104.826 94.4468 105.462 94.4468 106.125V115.194C94.4468 115.938 94.1651 116.652 93.6635 117.178C93.162 117.704 92.4818 118 91.7725 118H89.6809V106.125C89.6809 105.462 89.9319 104.826 90.3788 104.357C90.8257 103.888 91.4318 103.625 92.0638 103.625Z" fill="#BF7E68" stroke="#4C241D" stroke-width="1.05324" stroke-linecap="round" stroke-linejoin="round"/>
<path d="M87.2979 108V113" stroke="#4C241D" stroke-width="1.05324" stroke-linecap="round" stroke-linejoin="round"/>
<path d="M82.5319 106.125V109.875" stroke="#4C241D" stroke-width="1.05324" stroke-linecap="round" stroke-linejoin="round"/>
<path d="M82.5319 113V113.625" stroke="#4C241D" stroke-width="1.05324" stroke-linecap="round" stroke-linejoin="round"/>
<path d="M92.0638 114.875V109.875" stroke="#4C241D" stroke-width="1.05324" stroke-linecap="round" stroke-linejoin="round"/>
<path d="M92.0638 108V107.375" stroke="#4C241D" stroke-width="1.05324" stroke-linecap="round" stroke-linejoin="round"/>
<path d="M78.3617 110.5V109.875" stroke="#4C241D" stroke-width="1.05324" stroke-linecap="round" stroke-linejoin="round"/>
<path d="M77.1702 115.5V113.625" stroke="#4C241D" stroke-width="1.05324" stroke-linecap="round" stroke-linejoin="round"/>
<path d="M94.6601 91.8506C94.8322 91.5717 94.9495 91.2595 95.0049 90.9324C95.0604 90.6052 95.053 90.2697 94.9831 89.9457C94.9133 89.6216 94.7824 89.3154 94.5981 89.0451C94.4138 88.7749 94.1799 88.546 93.9101 88.372C93.6403 88.1979 93.3401 88.0822 93.0271 88.0316C92.714 87.981 92.3945 87.9966 92.0873 88.0774C91.7801 88.1582 91.4914 88.3026 91.2381 88.5022C90.9849 88.7017 90.7722 88.9524 90.6126 89.2394C89.8 88.7317 88.8464 88.5303 87.9099 88.6686C86.9733 88.8069 86.1098 89.2766 85.4624 90C85.3589 89.3198 85.0433 88.6948 84.5649 88.223C84.0865 87.7512 83.4724 87.4593 82.8189 87.3929C82.1653 87.3266 81.5093 87.4896 80.9536 87.8565C80.3978 88.2233 79.9738 88.7732 79.748 89.42C79.3923 89.4759 79.0566 89.6285 78.7745 89.8626C78.4923 90.0967 78.2734 90.4041 78.1395 90.7544C77.7531 90.4095 77.2623 90.2202 76.755 90.2206C76.2718 90.211 75.8008 90.3808 75.4254 90.7001C75.05 91.0194 74.7942 91.4676 74.7032 91.9656C74.5588 91.9077 74.4057 91.877 74.2511 91.875C73.9278 91.8661 73.6144 91.9923 73.3798 92.2257C73.1452 92.4592 73.0086 92.7809 73 93.12C73 93.3505 73.0433 93.5787 73.1273 93.7916C73.2114 94.0045 73.3346 94.198 73.49 94.361C73.6453 94.5239 73.8297 94.6532 74.0327 94.7414C74.2356 94.8296 74.4532 94.875 74.6729 94.875H80.1489V96.4375C80.1489 96.6861 80.2431 96.9246 80.4107 97.1004C80.5783 97.2762 80.8056 97.375 81.0426 97.375C81.2796 97.375 81.5068 97.2762 81.6744 97.1004C81.842 96.9246 81.9362 96.6861 81.9362 96.4375V94.875H86.7021V98C86.7021 98.4973 86.8904 98.9742 87.2256 99.3258C87.5608 99.6775 88.0154 99.875 88.4894 99.875C88.9634 99.875 89.418 99.6775 89.7531 99.3258C90.0883 98.9742 90.2766 98.4973 90.2766 98V94.875H94.1489C94.4985 94.8755 94.837 94.7467 95.105 94.5113C95.373 94.2759 95.5534 93.9489 95.6144 93.5879C95.6754 93.2268 95.6132 92.8547 95.4387 92.537C95.2641 92.2193 94.9885 91.9763 94.6601 91.8506Z" fill="#FFCE56" stroke="#4C241D" stroke-width="1.05324" stroke-linecap="round" stroke-linejoin="round"/>
<path d="M96.5915 108H94.4468V105.5H96.5915C97.1284 105.499 97.6429 105.275 98.0225 104.876C98.4022 104.478 98.6159 103.938 98.617 103.375V99.875H94.4468V97.375H99.8085C100.125 97.375 100.428 97.5067 100.651 97.7411C100.874 97.9755 101 98.2935 101 98.625V103.375C100.998 104.601 100.533 105.776 99.7069 106.643C98.8805 107.51 97.7602 107.998 96.5915 108Z" fill="#BF7E68" stroke="#4C241D" stroke-width="1.05324" stroke-linecap="round" stroke-linejoin="round"/>
<path d="M84.9149 118H101" stroke="#4C241D" stroke-width="1.05324" stroke-linecap="round" stroke-linejoin="round"/>
<path d="M89.0851 93C89.7431 93 90.2766 92.4404 90.2766 91.75C90.2766 91.0596 89.7431 90.5 89.0851 90.5C88.4271 90.5 87.8936 91.0596 87.8936 91.75C87.8936 92.4404 88.4271 93 89.0851 93Z" stroke="#4C241D" stroke-width="1.05324" stroke-linecap="round" stroke-linejoin="round"/>
<path d="M89.0851 85.5C89.7431 85.5 90.2766 84.9404 90.2766 84.25C90.2766 83.5596 89.7431 83 89.0851 83C88.4271 83 87.8936 83.5596 87.8936 84.25C87.8936 84.9404 88.4271 85.5 89.0851 85.5Z" stroke="#4C241D" stroke-width="1.05324" stroke-linecap="round" stroke-linejoin="round"/>
<path d="M24.1691 118.386C23.1031 117.213 22.5042 115.623 22.5042 113.965C22.5042 112.307 23.1031 110.717 24.1691 109.545L47.5534 83.831C48.6194 82.6586 50.0653 82 51.5729 82C53.0805 82 54.5263 82.6586 55.5924 83.831C56.6584 85.0034 57.2573 86.5935 57.2573 88.2515C57.2573 89.9095 56.6584 91.4996 55.5924 92.672L32.205 118.386C31.1391 119.557 29.6939 120.215 28.187 120.215C26.6802 120.215 25.235 119.557 24.1691 118.386Z" fill="#BF7E68" stroke="#4C241D" stroke-width="2.61961" stroke-linecap="round" stroke-linejoin="round"/>
<path d="M14.557 107.36V119.863" stroke="#4C241D" stroke-width="2.61961" stroke-linecap="round" stroke-linejoin="round"/>
<path d="M10.4227 121H18.6912" stroke="#4C241D" stroke-width="2.61961" stroke-linecap="round" stroke-linejoin="round"/>
<path d="M4.58727 92.3923C2.35271 99.517 6.7412 107.311 13.5792 107.801C13.8266 107.819 14.0764 107.828 14.3286 107.828C15.7906 107.833 17.2394 107.524 18.5941 106.919C20.9318 105.809 22.8215 103.801 23.9092 101.269C24.9969 98.737 25.208 95.8559 24.5029 93.1653L22.1454 83.49H7.29416L4.58727 92.3923Z" fill="white" stroke="#4C241D" stroke-width="2.61961" stroke-linecap="round" stroke-linejoin="round"/>
<path d="M4.07773 97.5915C4.32357 100.248 5.4095 102.725 7.14613 104.591C8.88276 106.457 11.1599 107.593 13.5803 107.801C13.8276 107.819 14.0774 107.828 14.3296 107.828C15.7916 107.833 17.2404 107.524 18.5951 106.919C20.9328 105.809 22.8225 103.801 23.9102 101.269C24.9979 98.737 25.209 95.8559 24.504 93.1653L24.3313 92.4833C21.3578 93.4464 18.5183 94.8535 15.8923 96.6651C10.6295 100.026 6.60478 99.076 4.07773 97.5915Z" fill="#F53E28" stroke="#4C241D" stroke-width="2.61961" stroke-linecap="round" stroke-linejoin="round"/>
<path d="M43.8801 87.8673L50.7315 88.0366" stroke="#4C241D" stroke-width="2.61961" stroke-linecap="round" stroke-linejoin="round"/>
<path d="M36.6451 95.824L43.4966 95.9933" stroke="#4C241D" stroke-width="2.61961" stroke-linecap="round" stroke-linejoin="round"/>
<path d="M29.4103 103.781L35.2282 103.865" stroke="#4C241D" stroke-width="2.61961" stroke-linecap="round" stroke-linejoin="round"/>
<path d="M23.8631 110.617L30.0604 110.77" stroke="#4C241D" stroke-width="2.61961" stroke-linecap="round" stroke-linejoin="round"/>
<path d="M37.2953 107.36H59V119.863H37.2953V107.36Z" fill="#D9BE6F" stroke="#4C241D" stroke-width="2.61961" stroke-linecap="round" stroke-linejoin="round"/>
<path d="M43.4966 100.54L37.2953 107.36H46.5973V113.612C46.5973 114.064 46.7606 114.498 47.0514 114.817C47.3421 115.137 47.7365 115.317 48.1476 115.317C48.5588 115.317 48.9531 115.137 49.2439 114.817C49.5346 114.498 49.698 114.064 49.698 113.612V110.202C49.698 110.654 49.8613 111.088 50.1521 111.407C50.4428 111.727 50.8371 111.907 51.2483 111.907C51.6595 111.907 52.0538 111.727 52.3446 111.407C52.6353 111.088 52.7986 110.654 52.7986 110.202V107.36H59L43.4966 100.54Z" fill="#FFCE56" stroke="#4C241D" stroke-width="2.61961" stroke-linecap="round" stroke-linejoin="round"/>
<defs>
<linearGradient id="paint0_linear_126_54" x1="64" y1="10.1667" x2="64" y2="111.833" gradientUnits="userSpaceOnUse">
<stop stop-color="#B2B9E0"/>
<stop offset="1" stop-color="#82A2B3"/>
</linearGradient>
</defs>
</svg>
