<svg width="45" height="43" viewBox="0 0 45 43" fill="none" xmlns="http://www.w3.org/2000/svg">
<path d="M22.5 39.4167C22.0625 39.4167 21.6875 39.2972 21.375 39.0583C21.0625 38.8195 20.8281 38.5059 20.6719 38.1177C20.0781 36.4455 19.3281 34.8778 18.4219 33.4146C17.5469 31.9514 16.3125 30.2344 14.7188 28.2635C13.125 26.2927 11.8281 24.4115 10.8281 22.6198C9.85938 20.8281 9.375 18.6632 9.375 16.125C9.375 12.6313 10.6406 9.67501 13.1719 7.25626C15.7344 4.80765 18.8438 3.58334 22.5 3.58334C26.1563 3.58334 29.25 4.80765 31.7812 7.25626C34.3438 9.67501 35.625 12.6313 35.625 16.125C35.625 18.8424 35.0781 21.1118 33.9844 22.9333C32.9219 24.725 31.6875 26.5017 30.2813 28.2635C28.5938 30.4135 27.3125 32.2052 26.4375 33.6385C25.5938 35.042 24.8906 36.5351 24.3281 38.1177C24.1719 38.5358 23.9219 38.8642 23.5781 39.1031C23.2656 39.3122 22.9063 39.4167 22.5 39.4167ZM22.5 20.6042C23.8125 20.6042 24.9219 20.1712 25.8281 19.3052C26.7344 18.4392 27.1875 17.3792 27.1875 16.125C27.1875 14.8708 26.7344 13.8108 25.8281 12.9448C24.9219 12.0788 23.8125 11.6458 22.5 11.6458C21.1875 11.6458 20.0781 12.0788 19.1719 12.9448C18.2656 13.8108 17.8125 14.8708 17.8125 16.125C17.8125 17.3792 18.2656 18.4392 19.1719 19.3052C20.0781 20.1712 21.1875 20.6042 22.5 20.6042Z" fill="#FDF9F9"/>
</svg>
