<svg width="76" height="97" viewBox="0 0 76 97" fill="none" xmlns="http://www.w3.org/2000/svg">
<path d="M51.8468 20.7933L51.9649 21.1261H52.3181H74.3461L56.564 32.9595L56.2394 33.1755L56.3698 33.5429L63.1856 52.7518L45.277 40.8369L45 40.6527L44.723 40.8369L26.8144 52.7518L33.6303 33.542L33.7606 33.1745L33.436 32.9585L15.654 21.1261H37.6819H38.0351L38.1532 20.7933L45 1.49533L51.8468 20.7933Z" fill="url(#paint0_linear_131_54)" fill-opacity="0.9" stroke="black"/>
<path d="M30.7007 49.9838C30.7007 49.9838 24.105 51.1704 29.5015 41.2816C33.399 34.1616 32.9492 25.8549 29.5015 21.5038C23.8052 14.5157 12.8622 16.7572 14.0615 20.8446C17.9589 34.689 9.11465 38.9082 4.61755 47.6104C-0.0294459 56.4445 0.420264 69.1023 2.51891 80.3097C3.86804 87.2978 7.31581 96 19.7578 96H36.9966L30.7007 49.9838Z" fill="#FFE1BD" stroke="black"/>
<path d="M21.7067 94.0222C9.26475 94.0222 6.5665 85.32 5.21737 78.3319C3.11873 67.1245 2.81892 58.1586 6.8663 49.0608C11.3634 39.1719 16.0104 38.9082 16.0104 19.3942C16.0104 18.4712 16.61 17.812 17.2096 17.2846C15.111 17.9438 13.9118 18.9986 13.9118 20.5809C13.9118 35.2164 9.26476 38.7764 4.76766 47.6104C-0.0292399 56.4445 0.42047 69.1023 2.51911 80.3096C3.86824 87.2978 7.31601 96 19.758 96H36.9968V94.0222H21.7067Z" fill="#E6B796" stroke="black"/>
<path d="M51.9869 61.4549H30.7007C23.2055 61.4549 23.2055 49.9838 30.7007 49.9838H51.9869C59.4821 49.9838 59.4821 61.4549 51.9869 61.4549Z" fill="#FFE1BD" stroke="black"/>
<path d="M53.6359 59.6089H32.3496C27.2529 59.6089 25.7539 54.3349 27.4028 51.0386C23.3555 53.8075 24.5547 61.5867 30.5508 61.5867H51.987C54.3854 61.5867 56.0343 60.4001 56.9338 58.686C56.0343 59.2134 54.985 59.6089 53.6359 59.6089Z" fill="#E6B796" stroke="black"/>
<path d="M54.2355 73.0578H28.752C19.7578 73.0578 19.7578 61.5867 28.752 61.5867H54.3854C63.2297 61.5867 63.2297 73.0578 54.2355 73.0578Z" fill="#FFE1BD" stroke="black"/>
<path d="M56.3342 71.08H30.7007C24.7046 71.08 22.7559 65.806 24.8545 62.5097C20.0576 65.2786 21.4067 73.0578 28.752 73.0578H54.3854C57.2336 73.0578 59.1823 71.8712 60.2317 70.1571C59.1823 70.6845 57.8332 71.08 56.3342 71.08Z" fill="#E6B796" stroke="black"/>
<path d="M51.8371 84.5289H30.251C22.7558 84.5289 22.7558 73.0578 30.251 73.0578H51.8371C59.4821 73.0578 59.4821 84.5289 51.8371 84.5289Z" fill="#FFE1BD" stroke="black"/>
<path d="M53.6359 82.5511H31.9C26.8032 82.5511 25.1543 77.2771 26.9532 73.8489C22.9058 76.6178 23.9551 84.3971 30.251 84.3971H51.8371C54.2355 84.3971 55.8845 83.2104 56.7839 81.4963C56.0344 82.2874 54.8351 82.5511 53.6359 82.5511Z" fill="#E6B796" stroke="black"/>
<path d="M49.5885 96H35.6475C27.5527 96 27.5527 84.5289 35.6475 84.5289H49.5885C57.6833 84.5289 57.6833 96 49.5885 96Z" fill="#FFE1BD" stroke="black"/>
<path d="M51.3873 94.1541H37.4463C32.0498 94.1541 30.251 88.88 32.1997 85.4519C27.8525 88.2208 29.0518 96 35.6475 96H49.5885C52.2868 96 53.9357 94.8133 54.8351 93.0993C53.9357 93.7585 52.7365 94.1541 51.3873 94.1541Z" fill="#E6B796" stroke="black"/>
<defs>
<linearGradient id="paint0_linear_131_54" x1="45" y1="0" x2="45" y2="54" gradientUnits="userSpaceOnUse">
<stop stop-color="#EE1C1C"/>
<stop offset="1" stop-color="#E86B6B"/>
</linearGradient>
</defs>
</svg>
